<?xml version="1.0" encoding="utf-8"?>
<!-- Generator: Adobe Illustrator 15.0.2, SVG Export Plug-In . SVG Version: 6.00 Build 0)  -->
<!DOCTYPE svg PUBLIC "-//W3C//DTD SVG 1.1//EN" "http://www.w3.org/Graphics/SVG/1.1/DTD/svg11.dtd">
<svg version="1.1" id="Layer_1" xmlns="http://www.w3.org/2000/svg" xmlns:xlink="http://www.w3.org/1999/xlink" x="0px" y="0px"
	 width="100px" height="100px" viewBox="0 0 100 100" enable-background="new 0 0 100 100" xml:space="preserve">
<g>
	<path fill="none" d="M36.53,42.197c2.645-5.732,8.429-9.721,15.127-9.721s12.483,3.989,15.128,9.721h13.16V26.159
		c0-3.123-2.533-5.665-5.646-5.665H43.421v8.231c0,1.078-0.871,1.952-1.945,1.952c-1.074,0-1.945-0.874-1.945-1.952v-8.231h-1.402
		v8.231c0,1.078-0.871,1.952-1.945,1.952c-1.074,0-1.945-0.874-1.945-1.952v-8.231h-1.665v8.231c0,1.078-0.871,1.952-1.945,1.952
		c-1.074,0-1.945-0.874-1.945-1.952v-8.207c-2.897,0.237-5.184,2.674-5.184,5.641v16.038H36.53L36.53,42.197z M64.584,28.306
		c0-1.337,1.081-2.421,2.413-2.421h5.067c1.332,0,2.414,1.084,2.414,2.421v5.084c0,1.337-1.082,2.421-2.414,2.421h-5.067
		c-1.332,0-2.413-1.084-2.413-2.421V28.306z"/>
	<path fill="none" d="M43.099,49.195c0,4.735,3.838,8.586,8.558,8.586s8.56-3.852,8.56-8.586s-3.84-8.587-8.56-8.587
		C46.938,40.609,43.099,44.461,43.099,49.195z"/>
	<path fill="none" d="M68.277,48.052c0.025,0.378,0.045,0.758,0.045,1.143c0,9.219-7.477,16.719-16.665,16.719
		c-9.188,0-16.663-7.5-16.663-16.719c0-0.385,0.018-0.765,0.043-1.143H23.499v23.412c0,3.123,2.533,5.665,5.646,5.665h45.154
		c3.112,0,5.646-2.542,5.646-5.665V48.052H68.277z"/>
	<path d="M74.299,13.013H29.145c-7.225,0-13.103,5.897-13.103,13.146v45.305c0,7.248,5.878,13.146,13.103,13.146h45.154
		c7.225,0,13.103-5.898,13.103-13.146V26.159C87.402,18.911,81.523,13.013,74.299,13.013z M28.683,20.519v8.207
		c0,1.078,0.871,1.952,1.945,1.952c1.074,0,1.945-0.874,1.945-1.952v-8.231h1.664v8.231c0,1.078,0.871,1.952,1.945,1.952
		s1.945-0.874,1.945-1.952v-8.231h1.402v8.231c0,1.078,0.871,1.952,1.945,1.952c1.075,0,1.946-0.874,1.946-1.952v-8.231h30.879
		c3.112,0,5.646,2.541,5.646,5.665v16.038h-13.16c-2.646-5.732-8.429-9.721-15.128-9.721c-6.698,0-12.483,3.989-15.128,9.721h-13.03
		V26.159C23.499,23.193,25.786,20.756,28.683,20.519z M60.217,49.195c0,4.735-3.84,8.586-8.56,8.586s-8.558-3.852-8.558-8.586
		s3.838-8.587,8.558-8.587C56.377,40.609,60.217,44.461,60.217,49.195z M74.299,77.129H29.145c-3.113,0-5.646-2.541-5.646-5.665
		V48.052h11.538c-0.025,0.379-0.043,0.759-0.043,1.144c0,9.219,7.475,16.719,16.663,16.719c9.188,0,16.665-7.5,16.665-16.719
		c0-0.385-0.02-0.765-0.045-1.144h11.668v23.412C79.945,74.587,77.412,77.129,74.299,77.129z"/>
	<path d="M66.997,35.811h5.067c1.332,0,2.414-1.084,2.414-2.421v-5.084c0-1.337-1.082-2.421-2.414-2.421h-5.067
		c-1.332,0-2.413,1.084-2.413,2.421v5.084C64.584,34.727,65.665,35.811,66.997,35.811z"/>
</g>
</svg>
