<svg xmlns="http://www.w3.org/2000/svg" xmlns:xlink="http://www.w3.org/1999/xlink" version="1.1" id="Capa_1" x="0px" y="0px" width="90px" height="90px" viewBox="4.5 -9.0 90.0 121.5" enable-background="new 0 0 90 90" xml:space="preserve">
<path fill="#000000" d="M54.048,46.834c8.249-3.527,14.045-11.719,14.045-21.243C68.093,12.858,57.734,2.5,45,2.5  c-12.733,0-23.093,10.358-23.093,23.091c0,9.523,5.797,17.716,14.046,21.241c-18.67,4.134-32.646,20.75-32.646,40.665V87.5h83.387  v-0.003C86.693,67.582,72.718,50.966,54.048,46.834z M24.782,25.591c0-11.165,9.053-20.216,20.218-20.216  c11.165,0,20.218,9.052,20.218,20.216c0,11.165-9.053,20.216-20.218,20.216C33.835,45.808,24.782,36.756,24.782,25.591z   M50.046,48.11v6.328H39.954V48.11c1.626,0.365,3.311,0.573,5.046,0.573S48.42,48.476,50.046,48.11z M50.633,71.69h-4.195v9.463  c0,0.795-0.643,1.438-1.438,1.438c-0.795,0-1.438-0.644-1.438-1.438V71.69h-4.194c-0.795,0-1.438-0.643-1.438-1.438  s0.643-1.438,1.438-1.438h4.194V64.62c0-0.795,0.643-1.438,1.438-1.438c0.794,0,1.438,0.643,1.438,1.438v4.195h4.195  c0.795,0,1.438,0.643,1.438,1.438S51.428,71.69,50.633,71.69z"/>
<text x="0.0" y="105.75" font-size="4.5" font-weight="bold" font-family="Helvetica Neue, Helvetica, Arial-Unicode, Arial, Sans-serif" fill="#000000">Created by Jos&#233; Manuel de La&#225;</text><text x="0.0" y="110.25" font-size="4.5" font-weight="bold" font-family="Helvetica Neue, Helvetica, Arial-Unicode, Arial, Sans-serif" fill="#000000">from the Noun Project</text></svg>