<?xml version="1.0" encoding="UTF-8" standalone="no"?>
<svg
   xmlns:dc="http://purl.org/dc/elements/1.1/"
   xmlns:cc="http://creativecommons.org/ns#"
   xmlns:rdf="http://www.w3.org/1999/02/22-rdf-syntax-ns#"
   xmlns:svg="http://www.w3.org/2000/svg"
   xmlns="http://www.w3.org/2000/svg"
   xmlns:sodipodi="http://sodipodi.sourceforge.net/DTD/sodipodi-0.dtd"
   xmlns:inkscape="http://www.inkscape.org/namespaces/inkscape"
   version="1.1"
   id="Layer_1"
   x="0px"
   y="0px"
   viewBox="-242 360.9 66.59259 89.899997"
   enable-background="new -247 370.9 100 100"
   xml:space="preserve"
   height="66.59259"
   width="66.59259"
   inkscape:version="0.91 r13725"
   sodipodi:docname="noun_v_cc.svg"><metadata
     id="metadata4269"><rdf:RDF><cc:Work
         rdf:about=""><dc:format>image/svg+xml</dc:format><dc:type
           rdf:resource="http://purl.org/dc/dcmitype/StillImage" /><dc:title></dc:title></cc:Work></rdf:RDF></metadata><defs
     id="defs4267" /><sodipodi:namedview
     pagecolor="#ffffff"
     bordercolor="#666666"
     borderopacity="1"
     objecttolerance="10"
     gridtolerance="10"
     guidetolerance="10"
     inkscape:pageopacity="0"
     inkscape:pageshadow="2"
     inkscape:window-width="1440"
     inkscape:window-height="851"
     id="namedview4265"
     showgrid="false"
     fit-margin-top="0"
     fit-margin-left="0"
     fit-margin-right="0"
     fit-margin-bottom="0"
     inkscape:zoom="2.36"
     inkscape:cx="35.90678"
     inkscape:cy="24.740743"
     inkscape:window-x="0"
     inkscape:window-y="0"
     inkscape:window-maximized="1"
     inkscape:current-layer="Layer_1" /><path
     d="m -209.44746,364.99575 c -22.6,0 -40.9,18.3 -40.9,40.9 0,22.6 18.3,40.9 40.9,40.9 22.6,0 40.9,-18.3 40.9,-40.9 0,-22.6 -18.3,-40.9 -40.9,-40.9 z m 0,78.4 c -20.7,0 -37.5,-16.8 -37.5,-37.5 0,-20.7 16.8,-37.5 37.5,-37.5 20.7,0 37.5,16.8 37.5,37.5 0,20.7 -16.8,37.5 -37.5,37.5 z"
     id="path4257"
     inkscape:connector-curvature="0" /><path
     d="m -209.44746,369.99575 c -19.8,0 -35.9,16.1 -35.9,35.9 0,19.8 16.1,35.9 35.9,35.9 19.8,0 35.9,-16.1 35.9,-35.9 0,-19.8 -16.1,-35.9 -35.9,-35.9 z m 4.6,59.1 c -0.9,1.8 -2.7,2.9 -4.7,2.9 0,0 0,0 0,0 -2,0 -3.8,-1.1 -4.7,-2.9 -5.5,-10.8 -11.3,-21.5 -17.4,-31.9 4.5,-1.1 6.8,-1.7 11.3,-2.7 4.5,8.1 6.7,12.2 10.9,20.4 5.8,-11.3 12,-22.4 18.5,-33.3 2.9,4 4.3,6.1 7.1,10.1 -7.4,12.4 -14.3,24.8 -21,37.4 z"
     id="path4259"
     inkscape:connector-curvature="0" /></svg>