<svg xmlns="http://www.w3.org/2000/svg" xmlns:xlink="http://www.w3.org/1999/xlink" version="1.1" id="Layer_1" x="0px" y="0px" width="100px" height="100px" viewBox="0 0 100 100" enable-background="new 0 0 100 100" xml:space="preserve">
<path d="M50.433,0.892c-27.119,0-49.102,21.983-49.102,49.102s21.983,49.103,49.102,49.103s49.101-21.984,49.101-49.103  S77.552,0.892,50.433,0.892z M50.433,93.258c-23.895,0-43.264-19.371-43.264-43.265c0-23.894,19.37-43.264,43.264-43.264  c23.894,0,43.263,19.37,43.263,43.264C93.696,73.887,74.327,93.258,50.433,93.258z"/>
<circle cx="50.433" cy="22.072" r="9.141"/>
<path d="M59,79.031C59,83.433,55.194,87,50.5,87l0,0c-4.694,0-8.5-3.567-8.5-7.969V42.469c0-4.401,3.806-7.969,8.5-7.969l0,0  c4.694,0,8.5,3.568,8.5,7.969V79.031z"/>
</svg>