<?xml version="1.0" encoding="utf-8"?>
<!-- Generator: Adobe Illustrator 15.0.2, SVG Export Plug-In . SVG Version: 6.00 Build 0)  -->
<!DOCTYPE svg PUBLIC "-//W3C//DTD SVG 1.1//EN" "http://www.w3.org/Graphics/SVG/1.1/DTD/svg11.dtd">
<svg version="1.1" id="Layer_1" xmlns="http://www.w3.org/2000/svg" xmlns:xlink="http://www.w3.org/1999/xlink" x="0px" y="0px"
	 width="100px" height="100px" viewBox="0 0 100 100" enable-background="new 0 0 100 100" xml:space="preserve">
<path d="M81.29,13.013H19.353c-3.14,0-5.698,2.558-5.698,5.698v61.938c0,3.139,2.558,5.697,5.698,5.697h31.492h14.555H81.29
	c3.139,0,5.697-2.559,5.697-5.697V18.711C86.987,15.57,84.429,13.013,81.29,13.013z M54.581,82.642V55.604h-9.074v-6.666h9.074
	v-9.666c0-3.819,1.09-6.931,3.182-9c2.011-1.987,4.968-3.038,8.494-3.038c2.479,0,4.619,0.122,6.285,0.241v5.868l-3.789,0.001
	c-7.06,0-7.138,5.244-7.138,6.967v8.625h10.229l-0.877,6.667h-9.353v27.038H54.581L54.581,82.642z M83.284,80.647
	c0,1.098-0.896,1.994-1.994,1.994H65.321V59.309h8.904l1.833-14.074H65.321v-4.922c0-1.278,0.208-2.074,0.571-2.506
	c0.423-0.503,1.431-0.758,2.882-0.758l7.473-0.003V24.175l-1.646-0.214c-0.841-0.111-4.196-0.43-8.371-0.43
	c-4.521,0-8.343,1.42-11.062,4.107c-2.812,2.78-4.293,6.803-4.293,11.634v5.963h-9.074v14.074h9.074v23.333H19.353
	c-1.098,0-1.994-0.896-1.994-1.994V18.71c0-1.098,0.896-1.994,1.994-1.994H81.29c1.098,0,1.994,0.896,1.994,1.994V80.647z"/>
</svg>
