<?xml version="1.0" encoding="utf-8"?>
<!-- Generator: Adobe Illustrator 15.0.2, SVG Export Plug-In . SVG Version: 6.00 Build 0)  -->
<!DOCTYPE svg PUBLIC "-//W3C//DTD SVG 1.1//EN" "http://www.w3.org/Graphics/SVG/1.1/DTD/svg11.dtd">
<svg version="1.1" id="Capa_1" xmlns="http://www.w3.org/2000/svg" xmlns:xlink="http://www.w3.org/1999/xlink" x="0px" y="0px"
	 width="90px" height="90px" viewBox="0 0 90 90" enable-background="new 0 0 90 90" xml:space="preserve">
<path d="M52.869,47.372c6.109-2.611,10.402-8.681,10.402-15.734c0-9.432-7.672-17.104-17.105-17.104
	c-9.431,0-17.105,7.672-17.105,17.104c0,7.054,4.294,13.123,10.405,15.733c-13.83,3.062-24.182,15.372-24.182,30.124v0.002h61.768
	v-0.002C77.051,62.743,66.699,50.434,52.869,47.372z M31.19,31.638c0-8.271,6.706-14.975,14.976-14.975
	c8.271,0,14.977,6.705,14.977,14.975c0,8.271-6.705,14.975-14.977,14.975C37.896,46.613,31.19,39.909,31.19,31.638z M49.904,48.318
	v4.688h-7.476v-4.688c1.205,0.271,2.453,0.424,3.737,0.424C47.451,48.742,48.7,48.59,49.904,48.318z M50.34,65.786h-3.107v7.01
	c0,0.589-0.477,1.064-1.065,1.064c-0.588,0-1.064-0.478-1.064-1.064v-7.01h-3.107c-0.589,0-1.065-0.478-1.065-1.065
	s0.476-1.063,1.065-1.063h3.107V60.55c0-0.59,0.477-1.065,1.064-1.065c0.589,0,1.065,0.476,1.065,1.065v3.107h3.107
	c0.588,0,1.064,0.477,1.064,1.064S50.928,65.786,50.34,65.786z"/>
</svg>
