<svg xmlns="http://www.w3.org/2000/svg" xmlns:xlink="http://www.w3.org/1999/xlink" version="1.1" id="Layer_1" x="0px" y="0px" width="99.996px" height="100px" viewBox="-12.9972 -28.0 99.996 135.0" enable-background="new -17.997 -18 99.996 100" xml:space="preserve">
<path fill="none" d="M32.003,58.928c14.844,0,26.924-12.082,26.924-26.928c0-14.847-12.08-26.926-26.924-26.926  C17.154,5.074,5.075,17.152,5.075,32C5.075,46.85,17.154,58.928,32.003,58.928z M32.003,8.778c12.785,0,23.221,10.438,23.221,23.222  c0,8.563-4.691,16.054-11.625,20.079c-2.021-6.46,4.756-12.927,0.452-19.387c-0.705-1.028-1.588-1.852-1.556-1.852  c0.025,0,0.666,0.824,1.013,1.852c2.695,7.205-8.424,14.402-5.729,21.605c0.018,0.046,0.058,0.096,0.083,0.142  c-1.089,0.287-2.203,0.516-3.346,0.638c-5.746-11.19,4.488-22.379-1.389-33.57c-0.553-1.023-1.147-1.852-1.129-1.852  s0.449,0.828,0.76,1.852c3.628,11.083-8.531,22.173-5.333,33.255c-1.666-0.336-3.26-0.858-4.78-1.529  c-0.028-0.178-0.091-0.358-0.225-0.554c-4.808-7.201,4.22-14.402-0.589-21.605c-0.705-1.028-1.592-1.852-1.559-1.852  c0.026,0,0.668,0.824,1.017,1.852c2.145,5.715-4.409,11.43-5.867,17.146C11.321,44.028,8.779,38.303,8.779,32  C8.779,19.212,19.21,8.778,32.003,8.778z"/>
<path fill="#231F20" d="M-6.134,39.722l-11.863,7.729l14.375-0.378c7.897-0.202,12.192,5.418,9.54,12.5L1.101,72.451l11.4-8.344  c6.261-4.577,13.205-2.429,15.44,4.777L32.003,82l4.058-13.115c2.235-7.206,9.18-9.354,15.441-4.777l11.4,8.344l-4.82-12.878  c-2.652-7.082,1.645-12.702,9.54-12.5l14.377,0.38l-11.863-7.729c-6.511-4.248-6.511-11.196,0-15.442l11.863-7.731l-14.373,0.377  c-7.899,0.205-12.193-5.416-9.542-12.5L62.905-8.45L51.503-0.104C45.24,4.47,38.296,2.321,36.061-4.883L32.003-18L27.942-4.885  c-2.235,7.204-9.18,9.354-15.44,4.78l-11.4-8.346L5.917,4.426c2.652,7.083-1.643,12.703-9.54,12.5l-14.375-0.377l11.863,7.731  C0.376,28.526,0.376,35.474-6.134,39.722z M32.003,5.074c14.844,0,26.924,12.079,26.924,26.926c0,14.846-12.08,26.928-26.924,26.928  C17.154,58.928,5.075,46.85,5.075,32C5.075,17.152,17.154,5.074,32.003,5.074z"/>
<path fill="#231F20" d="M21.29,31.074c-0.348-1.028-0.99-1.852-1.017-1.852c-0.033,0,0.854,0.824,1.559,1.852  c4.81,7.203-4.218,14.404,0.589,21.605c0.133,0.195,0.196,0.376,0.225,0.554c1.52,0.671,3.114,1.193,4.78,1.529  c-3.199-11.082,8.96-22.172,5.333-33.255c-0.311-1.023-0.742-1.852-0.76-1.852s0.576,0.828,1.129,1.852  c5.877,11.191-4.357,22.379,1.389,33.57c1.143-0.122,2.257-0.351,3.346-0.638c-0.025-0.046-0.065-0.096-0.083-0.142  c-2.695-7.203,8.424-14.4,5.729-21.605c-0.347-1.028-0.987-1.852-1.013-1.852c-0.032,0,0.851,0.824,1.556,1.852  c4.304,6.46-2.474,12.927-0.452,19.387C50.532,48.054,55.224,40.563,55.224,32c0-12.785-10.436-23.222-23.221-23.222  C19.21,8.778,8.779,19.212,8.779,32c0,6.303,2.542,12.028,6.644,16.22C16.88,42.504,23.435,36.789,21.29,31.074z"/>
<text x="-17.997" y="99.5" font-size="5.0" font-weight="bold" font-family="Helvetica Neue, Helvetica, Arial-Unicode, Arial, Sans-serif" fill="#000000">Created by Jory Raphael</text><text x="-17.997" y="104.5" font-size="5.0" font-weight="bold" font-family="Helvetica Neue, Helvetica, Arial-Unicode, Arial, Sans-serif" fill="#000000">from the Noun Project</text></svg>